<svg width="110" height="135" viewBox="0 0 110 135" fill="none" xmlns="http://www.w3.org/2000/svg">
<path d="M89.531 51.562C85.7771 51.5659 82.4763 54.0503 81.4294 57.6558H74.613C74.1833 54.0542 72.7653 50.6441 70.5153 47.7964L75.3669 42.9448H75.3708C77.652 44.1987 80.3825 44.3276 82.7731 43.2924C85.1598 42.2572 86.9372 40.1791 87.5817 37.6557C88.2301 35.1362 87.6715 32.4565 86.0739 30.4018C84.4762 28.3432 82.0192 27.144 79.4177 27.1479C76.4294 27.1245 73.6599 28.6987 72.1404 31.269C70.6248 33.8432 70.5896 37.0268 72.0545 39.6323L67.2029 44.4839C64.3552 42.2339 60.9451 40.8159 57.3435 40.3901V33.5698C61.3826 32.4018 63.9451 28.4409 63.3552 24.2807C62.7653 20.1166 59.2029 17.0268 54.9997 17.0229C50.7966 17.0229 47.2341 20.1167 46.6442 24.2807C46.0543 28.4409 48.6169 32.4018 52.6559 33.5698V40.3901C49.0543 40.8159 45.6442 42.2339 42.7965 44.4839L37.9449 39.6323C39.9722 35.9604 38.984 31.355 35.6324 28.8353C32.2769 26.3158 27.5816 26.6478 24.6164 29.6166C21.6164 32.5697 21.2609 37.2924 23.7921 40.6596C26.3233 44.0268 30.9562 45.0034 34.6281 42.9448L39.4797 47.7964H39.4837C37.2337 50.6441 35.8157 54.0542 35.386 57.6558H28.5696C27.4016 53.6206 23.4407 51.0542 19.2805 51.6441C15.1203 52.2339 12.0266 55.7964 12.0266 59.9996C12.0266 64.2028 15.1164 67.7652 19.2805 68.3551C23.4407 68.9449 27.4016 66.3824 28.5696 62.3434H35.3899H35.3859C35.8078 65.9489 37.2258 69.3629 39.4758 72.2106L34.6319 77.0544H34.628C33.3936 76.3591 31.9991 75.9919 30.5811 75.9802C26.7256 75.9372 23.3194 78.488 22.2725 82.2029C21.2295 85.9138 22.8038 89.867 26.1202 91.8435C29.4327 93.8162 33.6593 93.324 36.4292 90.6365C39.1987 87.949 39.8198 83.7381 37.9448 80.3665L42.7925 75.5188V75.5227C45.6363 77.7727 49.0503 79.1907 52.6558 79.6086V86.4289C48.6167 87.5969 46.0542 91.5578 46.6441 95.718C47.234 99.8821 50.7964 102.976 54.9996 102.976C59.2027 102.972 62.7652 99.882 63.3551 95.718C63.945 91.5578 61.3785 87.5969 57.3434 86.4289V79.6125C60.945 79.1906 64.359 77.7687 67.195 75.5109L72.0544 80.3703V80.3664C70.2458 83.6945 70.8825 87.8156 73.6091 90.4404C76.3396 93.0615 80.4841 93.5381 83.7381 91.6006C86.9881 89.6631 88.5428 85.792 87.535 82.1436C86.5233 78.4952 83.203 75.9717 79.4178 75.9795C77.9959 75.9912 76.6053 76.3584 75.367 77.0537L70.5232 72.2099C72.7693 69.3622 74.1834 65.9482 74.6091 62.3427H81.4294C82.3201 65.413 84.8669 67.7177 88.0114 68.2958C91.1559 68.87 94.3552 67.62 96.277 65.0653C98.1989 62.5067 98.5075 59.0848 97.0778 56.2255C95.6481 53.3661 92.7263 51.562 89.531 51.562ZM76.765 32.929C77.8353 31.8587 79.4486 31.5384 80.8509 32.1165C82.2532 32.6985 83.1673 34.0657 83.1673 35.5853C83.1673 37.1009 82.2532 38.4681 80.8509 39.0501C79.4486 39.6282 77.8353 39.3079 76.765 38.2376C76.058 37.5345 75.6595 36.5814 75.6595 35.5853C75.6595 34.5892 76.0579 33.6321 76.765 32.929ZM33.2341 38.2376C32.1638 39.3079 30.5505 39.6282 29.1482 39.0462C27.7498 38.4681 26.8357 37.1009 26.8357 35.5853C26.8357 34.0658 27.7498 32.6986 29.1482 32.1205C30.5505 31.5385 32.1638 31.8588 33.2341 32.9291C34.6989 34.3979 34.6989 36.7688 33.2341 38.2376ZM20.468 63.7497C18.9524 63.7497 17.5852 62.8356 17.0032 61.4333C16.4251 60.0349 16.7454 58.4216 17.8157 57.3474C18.8899 56.2771 20.5032 55.9568 21.9055 56.5349C23.3039 57.1169 24.218 58.4841 24.218 59.9997C24.218 62.07 22.5383 63.7497 20.468 63.7497ZM33.234 87.0697C32.1637 88.14 30.5504 88.4642 29.1481 87.8822C27.7458 87.3002 26.8317 85.933 26.8317 84.4174C26.8317 82.8979 27.7458 81.5307 29.1481 80.9526C30.5504 80.3706 32.1637 80.6909 33.234 81.7651C34.6988 83.2299 34.6988 85.6048 33.234 87.0697ZM51.25 25.4677C51.25 23.9521 52.1641 22.5849 53.5625 22.0029C54.9648 21.4248 56.5781 21.7451 57.6523 22.8154C58.7226 23.8896 59.0468 25.5029 58.4648 26.9052C57.8828 28.3075 56.5156 29.2177 55 29.2177C52.9297 29.2177 51.25 27.538 51.25 25.4677ZM58.75 94.5297C58.75 96.0453 57.8359 97.4125 56.4336 97.9945C55.0352 98.5765 53.4219 98.2562 52.3477 97.182C51.2735 96.1078 50.9532 94.4945 51.5352 93.0961C52.1133 91.6938 53.4844 90.7797 55 90.7797C57.0703 90.7797 58.7461 92.4594 58.75 94.5297ZM55 75.0767C51.1758 75.0806 47.4922 73.6197 44.711 70.9947C46.5704 66.9517 50.5899 64.3424 55.039 64.2916C59.4882 64.2408 63.5663 66.7564 65.519 70.7564C62.7182 73.5298 58.938 75.0806 55 75.0767ZM66.6371 69.5416C64.3285 65.2955 59.8598 62.6744 55.0241 62.7291C50.1921 62.7838 45.7819 65.5064 43.5671 69.8033C41.0515 66.8853 39.7507 63.1158 39.9265 59.2683C40.1023 55.4206 41.7429 51.7839 44.5124 49.1083C47.2819 46.4327 50.9733 44.9169 54.8244 44.8739C58.676 44.8309 62.3947 46.2645 65.2264 48.8778C68.0545 51.4911 69.7772 55.0848 70.0428 58.9288C70.3045 62.7726 69.0863 66.5692 66.6371 69.5416ZM76.766 81.7645C77.8363 80.6903 79.4496 80.37 80.8519 80.952C82.2542 81.5301 83.1683 82.8973 83.1683 84.4168C83.1683 85.9324 82.2542 87.2996 80.8519 87.8816C79.4496 88.4636 77.8363 88.1394 76.766 87.0691C76.059 86.366 75.6605 85.4129 75.6605 84.4168C75.6605 83.4207 76.0589 82.4637 76.766 81.7645ZM89.532 63.7486C88.0125 63.7486 86.6453 62.8345 86.0672 61.4361C85.4852 60.0338 85.8055 58.4205 86.8797 57.3463C87.95 56.276 89.5633 55.9557 90.9656 56.5338C92.3679 57.1158 93.282 58.483 93.282 59.9986C93.2781 62.0689 91.6023 63.7486 89.532 63.7486ZM55.173 49.3225C53.0246 49.3225 51.0871 50.6155 50.2628 52.5998C49.4425 54.5842 49.8956 56.8732 51.4151 58.3928C52.9346 59.9123 55.2198 60.3655 57.2081 59.5412C59.1925 58.7209 60.4854 56.7834 60.4854 54.635C60.4815 51.7014 58.1066 49.3225 55.173 49.3225ZM55.173 58.385C53.6574 58.385 52.2902 57.4709 51.7082 56.0686C51.1262 54.6663 51.4504 53.053 52.5207 51.9827C53.5949 50.9085 55.2082 50.5882 56.6066 51.1702C58.0089 51.7483 58.923 53.1155 58.923 54.635C58.9191 56.7053 57.2433 58.3811 55.173 58.385Z" fill="#478BFB"/>
</svg>
