<svg width="9" height="8" viewBox="0 0 9 8" fill="none" xmlns="http://www.w3.org/2000/svg">
<path fill-rule="evenodd" clip-rule="evenodd" d="M1.7256 5.13271L2.7692 4.18211V3.51401C2.7692 3.44391 2.8261 3.38701 2.8962 3.38701H3.6539C3.724 3.38701 3.7809 3.44391 3.7809 3.51401V4.01471L4.6887 4.48981C4.7011 4.43271 4.752 4.38991 4.8128 4.38991H5.4183L6.616 2.82091C6.6073 2.80371 6.6024 2.78431 6.6024 2.76371V2.00601C6.6024 1.93591 6.6593 1.87901 6.7294 1.87901H7.4871C7.5572 1.87901 7.6141 1.93591 7.6141 2.00601V2.76371C7.6141 2.83381 7.5572 2.89071 7.4871 2.89071H6.8815L5.6839 4.45971C5.6926 4.47691 5.6975 4.49631 5.6975 4.51691V5.27461C5.6975 5.34471 5.6406 5.40161 5.5705 5.40161H4.8128C4.7427 5.40161 4.6858 5.34471 4.6858 5.27461V4.77381L3.778 4.29871C3.7656 4.35581 3.7147 4.39871 3.6539 4.39871H2.9079L1.8643 5.34931V6.01741C1.8643 6.08751 1.8074 6.14441 1.7373 6.14441H0.979603C0.909503 6.14441 0.852603 6.08751 0.852603 6.01741V5.25971C0.852603 5.18961 0.909503 5.13271 0.979603 5.13271H1.7256ZM0.296303 0.644914C0.296303 0.574814 0.353203 0.517914 0.423303 0.517914C0.493403 0.517914 0.550303 0.574814 0.550303 0.644914V7.69471H8.0433C8.1134 7.69471 8.1703 7.75161 8.1703 7.82171C8.1703 7.89181 8.1134 7.94871 8.0433 7.94871H0.423303C0.353203 7.94871 0.296303 7.89181 0.296303 7.82171V0.644914Z" fill="#478BFB"/>
</svg>
