<svg width="100" height="98" viewBox="0 0 100 98" fill="none" xmlns="http://www.w3.org/2000/svg">
<path fill-rule="evenodd" clip-rule="evenodd" d="M67.215 16.4L67.207 16.375L65.4 12.01L62.745 13.11C62.47 13.2315 62.1618 13.2559 61.8711 13.1792C61.5804 13.1025 61.3243 12.9293 61.145 12.688C60.3355 11.5965 59.3691 10.6307 58.277 9.822C58.0399 9.646 57.8681 9.39598 57.789 9.11147C57.7098 8.82695 57.7278 8.52417 57.84 8.251L58.949 5.56L54.561 3.742L53.482 6.348C53.3823 6.64277 53.1824 6.89326 52.9171 7.05588C52.6518 7.21849 52.3379 7.28294 52.03 7.238C50.6839 7.03533 49.3151 7.03533 47.969 7.238C47.6764 7.28089 47.3778 7.22465 47.1208 7.07823C46.8639 6.9318 46.6633 6.70362 46.551 6.43L45.439 3.742L41.051 5.56L42.151 8.215C42.2738 8.49062 42.2989 8.79987 42.2221 9.09167C42.1454 9.38348 41.9715 9.6404 41.729 9.82C40.6375 10.6295 39.6717 11.5959 38.863 12.688C38.687 12.9251 38.437 13.0969 38.1525 13.176C37.868 13.2552 37.5652 13.2372 37.292 13.125L34.6 12.01L32.785 16.4L35.385 17.478C35.6799 17.5775 35.9305 17.7774 36.0931 18.0427C36.2558 18.3081 36.3201 18.6221 36.275 18.93C36.074 20.2762 36.074 21.6448 36.275 22.991C36.3179 23.2836 36.2617 23.5822 36.1152 23.8392C35.9688 24.0961 35.7406 24.2967 35.467 24.409L32.784 25.52L34.6 29.908L37.255 28.808C37.53 28.6865 37.8382 28.6621 38.1289 28.7388C38.4196 28.8155 38.6757 28.9887 38.855 29.23C39.666 30.3233 40.6345 31.2905 41.729 32.1C41.9662 32.276 42.1379 32.526 42.217 32.8105C42.2962 33.095 42.2782 33.3978 42.166 33.671L41.051 36.362L45.439 38.179L46.518 35.579C46.6175 35.2841 46.8174 35.0335 47.0827 34.8709C47.3481 34.7082 47.6621 34.6439 47.97 34.689C49.3161 34.8917 50.6849 34.8917 52.031 34.689C52.3237 34.6462 52.6224 34.7025 52.8795 34.8489C53.1366 34.9953 53.3374 35.2234 53.45 35.497L54.561 38.18L58.949 36.363L57.849 33.708C57.7262 33.4324 57.7011 33.1231 57.7779 32.8313C57.8546 32.5395 58.0285 32.2826 58.271 32.103C59.3625 31.2935 60.3283 30.3271 61.137 29.235C61.313 28.9978 61.563 28.8261 61.8475 28.747C62.132 28.6678 62.4348 28.6858 62.708 28.798L65.4 29.908L67.218 25.52L64.612 24.441C64.3172 24.3413 64.0667 24.1414 63.9041 23.8761C63.7415 23.6108 63.6771 23.2969 63.722 22.989C63.8225 22.3163 63.8739 21.6372 63.876 20.957C63.8761 20.2779 63.8259 19.5997 63.726 18.928C63.6832 18.6352 63.7395 18.3366 63.8859 18.0795C64.0323 17.8224 64.2604 17.6216 64.534 17.509L67.216 16.399L67.215 16.4ZM17.1 44.092H82.91C83.5714 44.0977 84.224 44.2441 84.8245 44.5213C85.425 44.7985 85.9596 45.2003 86.393 45.7C87.2868 46.7176 87.7763 48.0276 87.769 49.382V59.528C87.7763 60.8824 87.2868 62.1924 86.393 63.21C85.9594 63.7108 85.424 64.1136 84.8226 64.3913C84.2212 64.6691 83.5675 64.8156 82.905 64.821H17.1C16.4375 64.8156 15.7838 64.6691 15.1824 64.3913C14.581 64.1136 14.0456 63.7108 13.612 63.21C12.7182 62.1924 12.2287 60.8824 12.236 59.528V49.385C12.2265 48.0303 12.7143 46.7191 13.607 45.7C14.0415 45.1991 14.5777 44.7965 15.1801 44.5193C15.7824 44.242 16.4369 44.0963 17.1 44.092ZM65.657 46.753H17.1C16.8135 46.7596 16.5316 46.8269 16.2731 46.9505C16.0145 47.0741 15.7851 47.2512 15.6 47.47C15.1405 48.0013 14.8915 48.6826 14.9 49.385V59.528C14.8915 60.2304 15.1405 60.9117 15.6 61.443C15.7851 61.6617 16.0145 61.8386 16.2731 61.9621C16.5317 62.0855 16.8135 62.1526 17.1 62.159H65.652V46.753H65.657ZM82.91 46.753H68.314V62.159H82.905C83.1915 62.1526 83.4733 62.0855 83.7319 61.9621C83.9905 61.8386 84.2199 61.6617 84.405 61.443C84.8645 60.9117 85.1136 60.2304 85.105 59.528V49.385C85.1136 48.6826 84.8645 48.0013 84.405 47.47C84.2199 47.2512 83.9905 47.0741 83.7319 46.9505C83.4734 46.8269 83.1915 46.7596 82.905 46.753H82.91ZM53.367 12.821C54.9771 13.4862 56.3538 14.614 57.3229 16.0617C58.292 17.5094 58.81 19.212 58.8113 20.9542C58.8125 22.6963 58.2971 24.3997 57.3302 25.8489C56.3633 27.298 54.9883 28.4279 53.3791 29.0954C51.77 29.763 49.999 29.9384 48.2901 29.5993C46.5813 29.2602 45.0114 28.422 43.7791 27.1906C42.5468 25.9591 41.7073 24.3899 41.367 22.6813C41.0266 20.9728 41.2006 19.2016 41.867 17.592C42.76 15.4349 44.473 13.7206 46.6294 12.826C48.7858 11.9314 51.2092 11.9296 53.367 12.821ZM52.359 15.274C53.4834 15.7406 54.4442 16.5301 55.1198 17.5427C55.7955 18.5553 56.1558 19.7455 56.155 20.9629C56.1542 22.1802 55.7925 23.37 55.1155 24.3817C54.4386 25.3935 53.4768 26.1818 52.3518 26.6469C51.2269 27.1121 49.9892 27.2332 48.7954 26.995C47.6016 26.7567 46.5053 26.1698 45.645 25.3085C44.7848 24.4472 44.1993 23.3501 43.9625 22.156C43.7258 20.9619 43.8484 19.7244 44.315 18.6C44.9419 17.0933 46.141 15.8969 47.6491 15.2733C49.1572 14.6498 50.8511 14.65 52.359 15.274ZM69.359 14.639H98.669C99.0218 14.639 99.3602 14.7791 99.6098 15.0285C99.8594 15.2779 99.9997 15.6162 100 15.969V80.059C99.9997 80.4118 99.8594 80.7501 99.6098 80.9995C99.3602 81.2489 99.0218 81.389 98.669 81.389H62.088L68.571 86.936H73.438C74.8138 86.9386 76.1325 87.4864 77.1053 88.4594C78.0781 89.4323 78.6256 90.7512 78.628 92.127V95.986C78.628 96.3385 78.4882 96.6766 78.2392 96.9261C77.9903 97.1756 77.6525 97.3162 77.3 97.317H22.7C22.347 97.317 22.0085 97.1768 21.7588 96.9272C21.5092 96.6776 21.369 96.339 21.369 95.986V92.127C21.3714 90.7512 21.9189 89.4323 22.8917 88.4594C23.8645 87.4864 25.1832 86.9386 26.559 86.936H31.426L37.908 81.389H1.331C0.97817 81.389 0.639776 81.2489 0.390194 80.9995C0.140612 80.7501 0.000265086 80.4118 0 80.059L0 15.969C0.000265086 15.6162 0.140612 15.2779 0.390194 15.0285C0.639776 14.7791 0.97817 14.639 1.331 14.639H30.641L32.656 9.773C32.7898 9.44767 33.0473 9.18877 33.3718 9.05319C33.6964 8.91762 34.0616 8.91647 34.387 9.05L37.378 10.289C37.674 9.93833 37.985 9.6 38.311 9.274C38.637 8.948 38.9767 8.63566 39.33 8.337L38.091 5.346C37.9575 5.02056 37.9586 4.65543 38.0942 4.33084C38.2298 4.00625 38.4887 3.74878 38.814 3.615L45.653 0.782996C45.8141 0.716717 45.9866 0.682816 46.1608 0.683231C46.3349 0.683646 46.5073 0.718369 46.6681 0.785416C46.8288 0.852463 46.9748 0.95052 47.0976 1.07399C47.2205 1.19745 47.3178 1.34391 47.384 1.505L48.619 4.488C49.074 4.451 49.535 4.432 49.998 4.432C50.461 4.432 50.928 4.451 51.381 4.489L52.616 1.505C52.6822 1.34391 52.7795 1.19745 52.9024 1.07399C53.0252 0.95052 53.1712 0.852463 53.3319 0.785416C53.4927 0.718369 53.6651 0.683646 53.8392 0.683231C54.0134 0.682816 54.1859 0.716717 54.347 0.782996L61.186 3.615C61.5113 3.74878 61.7702 4.00625 61.9058 4.33084C62.0414 4.65543 62.0425 5.02056 61.909 5.346L60.67 8.337C61.0207 8.633 61.359 8.944 61.685 9.27C62.011 9.596 62.3233 9.93566 62.622 10.289L65.613 9.05C65.9384 8.91647 66.3036 8.91762 66.6282 9.05319C66.9527 9.18877 67.2102 9.44767 67.344 9.773L69.359 14.639ZM29.737 17.3C29.7692 17.5293 29.8608 17.7462 30.0027 17.9291C30.1446 18.1121 30.3319 18.2548 30.546 18.343L33.53 19.578C33.512 19.794 33.4983 20.0113 33.489 20.23H7.185C6.832 20.23 6.49345 20.3702 6.24384 20.6198C5.99423 20.8694 5.854 21.208 5.854 21.561V74.467C5.85374 74.642 5.88797 74.8153 5.95474 74.977C6.02151 75.1387 6.11951 75.2856 6.24313 75.4095C6.36675 75.5333 6.51357 75.6315 6.67519 75.6985C6.8368 75.7655 7.01004 75.8 7.185 75.8H92.815C93.168 75.8 93.5065 75.6598 93.7562 75.4102C94.0058 75.1605 94.146 74.822 94.146 74.469V21.561C94.146 21.208 94.0058 20.8694 93.7562 20.6198C93.5065 20.3702 93.168 20.23 92.815 20.23H66.515C66.505 20.012 66.492 19.794 66.474 19.578L69.457 18.343C69.6711 18.2548 69.8583 18.1121 70.0003 17.9291C70.1422 17.7462 70.2338 17.5293 70.266 17.3H97.338V78.728H2.662V17.3H29.737ZM67.8 22.891H91.485V73.137H8.515V22.891H32.2L30.549 23.575C30.3879 23.6412 30.2415 23.7385 30.118 23.8614C29.9945 23.9842 29.8965 24.1302 29.8294 24.2909C29.7624 24.4517 29.7276 24.6241 29.7272 24.7982C29.7268 24.9724 29.7607 25.1449 29.827 25.306L32.659 32.145C32.7928 32.4703 33.0503 32.7292 33.3748 32.8648C33.6994 33.0004 34.0646 33.0015 34.39 32.868L37.381 31.629C37.6797 31.983 37.992 32.3227 38.318 32.648C38.644 32.9733 38.9823 33.2843 39.333 33.581L38.094 36.572C37.9608 36.8975 37.962 37.2625 38.0976 37.587C38.2331 37.9115 38.4918 38.169 38.817 38.303L45.656 41.135C45.8171 41.2013 45.9896 41.2352 46.1638 41.2348C46.3379 41.2343 46.5103 41.1996 46.6711 41.1326C46.8318 41.0655 46.9778 40.9675 47.1006 40.844C47.2235 40.7205 47.3208 40.5741 47.387 40.413L48.623 37.429C49.075 37.467 49.536 37.485 50.005 37.486C50.474 37.487 50.929 37.467 51.384 37.43L52.619 40.413C52.6852 40.5741 52.7825 40.7205 52.9054 40.844C53.0282 40.9675 53.1742 41.0655 53.3349 41.1326C53.4957 41.1996 53.6681 41.2343 53.8422 41.2348C54.0164 41.2352 54.1889 41.2013 54.35 41.135L61.186 38.3C61.5113 38.1662 61.7702 37.9087 61.9058 37.5842C62.0414 37.2596 62.0425 36.8944 61.909 36.569L60.67 33.581C61.024 33.2817 61.3637 32.9693 61.689 32.644C62.0143 32.3187 62.3253 31.9803 62.622 31.629L65.613 32.868C65.9384 33.0015 66.3036 33.0004 66.6282 32.8648C66.9527 32.7292 67.2102 32.4703 67.344 32.145L70.176 25.306C70.2423 25.1449 70.2762 24.9724 70.2758 24.7982C70.2753 24.6241 70.2406 24.4517 70.1736 24.2909C70.1065 24.1302 70.0085 23.9842 69.885 23.8614C69.7615 23.7385 69.6151 23.6412 69.454 23.575L67.8 22.891ZM17.452 49.378V59.535C17.452 59.888 17.5922 60.2265 17.8418 60.4762C18.0915 60.7258 18.43 60.866 18.783 60.866C19.136 60.866 19.4745 60.7258 19.7242 60.4762C19.9738 60.2265 20.114 59.888 20.114 59.535V49.378C20.114 49.025 19.9738 48.6864 19.7242 48.4368C19.4745 48.1872 19.136 48.047 18.783 48.047C18.43 48.047 18.0915 48.1872 17.8418 48.4368C17.5922 48.6864 17.452 49.025 17.452 49.378ZM79.376 55.24C79.9757 54.1853 80.1726 52.949 79.9302 51.7602C79.6877 50.5714 79.0224 49.5109 78.0575 48.7753C77.0927 48.0398 75.8938 47.6791 74.6832 47.7602C73.4727 47.8413 72.3326 48.3586 71.4745 49.2163C70.6164 50.074 70.0984 51.2138 70.0167 52.4243C69.935 53.6348 70.295 54.8338 71.03 55.7991C71.7651 56.7643 72.8252 57.4302 74.0139 57.6733C75.2025 57.9164 76.439 57.7202 77.494 57.121L81.149 60.776C81.27 60.9088 81.4167 61.0158 81.5802 61.0904C81.7436 61.1649 81.9205 61.2056 82.1002 61.21C82.2798 61.2143 82.4585 61.1822 82.6254 61.1155C82.7922 61.0489 82.9439 60.9492 83.0712 60.8223C83.1984 60.6954 83.2987 60.5441 83.3658 60.3774C83.433 60.2108 83.4657 60.0322 83.4619 59.8526C83.4582 59.6729 83.418 59.4959 83.344 59.3322C83.2699 59.1684 83.1634 59.0214 83.031 58.9L79.376 55.24ZM75.015 50.408C74.4709 50.4082 73.9437 50.597 73.5232 50.9423C73.1027 51.2876 72.8149 51.768 72.7089 52.3017C72.6028 52.8353 72.6851 53.3893 72.9417 53.8691C73.1983 54.3489 73.6133 54.7249 74.116 54.9331C74.6187 55.1412 75.178 55.1687 75.6987 55.0107C76.2194 54.8527 76.6692 54.5191 76.9714 54.0666C77.2737 53.6142 77.4098 53.071 77.3564 52.5295C77.3031 51.988 77.0637 51.4818 76.679 51.097C76.4606 50.8783 76.2012 50.7049 75.9157 50.5867C75.6301 50.4685 75.324 50.4077 75.015 50.408ZM26.562 89.6C25.8923 89.6029 25.2508 89.8703 24.7773 90.344C24.3038 90.8177 24.0366 91.4592 24.034 92.129V94.658H75.966V92.127C75.9628 91.4576 75.6955 90.8165 75.222 90.3433C74.7486 89.87 74.1074 89.6029 73.438 89.6H26.562ZM58.005 81.391H42L35.517 86.938H64.488L58.005 81.391Z" fill="#478BFB"/>
</svg>
